<mxfile host="app.diagrams.net" modified="2023-11-09T10:44:48.799Z" agent="Mozilla/5.0 (X11; Ubuntu; Linux x86_64; rv:109.0) Gecko/20100101 Firefox/119.0" etag="5NU7N59VnkTqZkLJbXMs" version="22.1.0" type="github">
  <diagram name="Page-1" id="2KGdTCurLZp-fvfbmm0f">
    <mxGraphModel dx="474" dy="794" grid="1" gridSize="10" guides="1" tooltips="1" connect="1" arrows="1" fold="1" page="1" pageScale="1" pageWidth="827" pageHeight="1169" math="0" shadow="0">
      <root>
        <mxCell id="0" />
        <mxCell id="1" parent="0" />
        <mxCell id="PAqF7uCTHNYOKnFJ6fK8-1" value="CLIENTS " style="swimlane;whiteSpace=wrap;html=1;" vertex="1" parent="1">
          <mxGeometry x="300" y="60" width="110" height="130" as="geometry" />
        </mxCell>
        <mxCell id="PAqF7uCTHNYOKnFJ6fK8-3" value="&lt;div&gt;PK codeCL&lt;/div&gt;&lt;div&gt;nom&lt;/div&gt;&lt;div&gt;prenom&lt;/div&gt;&lt;div&gt;adresse&lt;/div&gt;&lt;div&gt;email&lt;br&gt;&lt;/div&gt;&lt;div&gt;numtel&lt;br&gt;&lt;/div&gt;" style="text;html=1;align=center;verticalAlign=middle;resizable=0;points=[];autosize=1;strokeColor=none;fillColor=none;" vertex="1" parent="PAqF7uCTHNYOKnFJ6fK8-1">
          <mxGeometry x="15" y="30" width="80" height="100" as="geometry" />
        </mxCell>
        <mxCell id="PAqF7uCTHNYOKnFJ6fK8-2" value="ARTICLES" style="swimlane;whiteSpace=wrap;html=1;" vertex="1" parent="1">
          <mxGeometry x="474" y="530" width="126" height="140" as="geometry" />
        </mxCell>
        <mxCell id="PAqF7uCTHNYOKnFJ6fK8-4" value="&lt;div&gt;PK num_ref&lt;/div&gt;&lt;div&gt;designationArt&lt;/div&gt;&lt;div&gt;quantitestockArt&lt;br&gt;&lt;/div&gt;" style="text;html=1;align=center;verticalAlign=middle;resizable=0;points=[];autosize=1;strokeColor=none;fillColor=none;" vertex="1" parent="PAqF7uCTHNYOKnFJ6fK8-2">
          <mxGeometry x="16" y="55" width="110" height="60" as="geometry" />
        </mxCell>
        <mxCell id="PAqF7uCTHNYOKnFJ6fK8-6" value="POINT DISTRIBUTION" style="swimlane;whiteSpace=wrap;html=1;" vertex="1" parent="1">
          <mxGeometry x="520" y="170" width="130" height="160" as="geometry" />
        </mxCell>
        <mxCell id="PAqF7uCTHNYOKnFJ6fK8-8" value="&lt;br&gt;&lt;div&gt;PK refPointDist&lt;/div&gt;&lt;div&gt;adressePointDist&lt;br&gt;&lt;/div&gt;" style="text;html=1;align=center;verticalAlign=middle;resizable=0;points=[];autosize=1;strokeColor=none;fillColor=none;" vertex="1" parent="PAqF7uCTHNYOKnFJ6fK8-6">
          <mxGeometry x="10" y="45" width="110" height="60" as="geometry" />
        </mxCell>
        <mxCell id="PAqF7uCTHNYOKnFJ6fK8-11" value="ASSOCIE" style="rhombus;whiteSpace=wrap;html=1;" vertex="1" parent="1">
          <mxGeometry x="480" y="40" width="120" height="100" as="geometry" />
        </mxCell>
        <mxCell id="PAqF7uCTHNYOKnFJ6fK8-12" value="" style="endArrow=none;html=1;rounded=0;entryX=0;entryY=0.5;entryDx=0;entryDy=0;exitX=1;exitY=0.5;exitDx=0;exitDy=0;" edge="1" parent="1" source="PAqF7uCTHNYOKnFJ6fK8-1" target="PAqF7uCTHNYOKnFJ6fK8-11">
          <mxGeometry width="50" height="50" relative="1" as="geometry">
            <mxPoint x="420" y="380" as="sourcePoint" />
            <mxPoint x="470" y="330" as="targetPoint" />
          </mxGeometry>
        </mxCell>
        <mxCell id="PAqF7uCTHNYOKnFJ6fK8-13" value="" style="endArrow=none;html=1;rounded=0;entryX=0.5;entryY=1;entryDx=0;entryDy=0;exitX=0.5;exitY=0;exitDx=0;exitDy=0;" edge="1" parent="1" source="PAqF7uCTHNYOKnFJ6fK8-6" target="PAqF7uCTHNYOKnFJ6fK8-11">
          <mxGeometry width="50" height="50" relative="1" as="geometry">
            <mxPoint x="420" y="380" as="sourcePoint" />
            <mxPoint x="470" y="330" as="targetPoint" />
          </mxGeometry>
        </mxCell>
        <mxCell id="PAqF7uCTHNYOKnFJ6fK8-15" value="(1,1)" style="text;html=1;strokeColor=none;fillColor=none;align=center;verticalAlign=middle;whiteSpace=wrap;rounded=0;" vertex="1" parent="1">
          <mxGeometry x="420" y="110" width="60" height="30" as="geometry" />
        </mxCell>
        <mxCell id="PAqF7uCTHNYOKnFJ6fK8-16" value="(0,N)" style="text;html=1;strokeColor=none;fillColor=none;align=center;verticalAlign=middle;whiteSpace=wrap;rounded=0;" vertex="1" parent="1">
          <mxGeometry x="550" y="130" width="60" height="30" as="geometry" />
        </mxCell>
        <mxCell id="PAqF7uCTHNYOKnFJ6fK8-17" value="COMMANDE" style="swimlane;whiteSpace=wrap;html=1;" vertex="1" parent="1">
          <mxGeometry x="250" y="420" width="131" height="160" as="geometry" />
        </mxCell>
        <mxCell id="PAqF7uCTHNYOKnFJ6fK8-18" value="&lt;div&gt;PK num_commande&lt;/div&gt;&lt;div&gt;date_commande &lt;br&gt;&lt;/div&gt;&lt;div&gt;montantTotalCom&lt;br&gt;&lt;/div&gt;" style="text;html=1;align=center;verticalAlign=middle;resizable=0;points=[];autosize=1;strokeColor=none;fillColor=none;" vertex="1" parent="PAqF7uCTHNYOKnFJ6fK8-17">
          <mxGeometry x="1" y="30" width="130" height="60" as="geometry" />
        </mxCell>
        <mxCell id="PAqF7uCTHNYOKnFJ6fK8-20" value="FAIT" style="rhombus;whiteSpace=wrap;html=1;" vertex="1" parent="1">
          <mxGeometry x="301" y="270" width="80" height="80" as="geometry" />
        </mxCell>
        <mxCell id="PAqF7uCTHNYOKnFJ6fK8-21" value="" style="endArrow=none;html=1;rounded=0;entryX=0.525;entryY=1.02;entryDx=0;entryDy=0;entryPerimeter=0;exitX=0.5;exitY=0;exitDx=0;exitDy=0;" edge="1" parent="1" source="PAqF7uCTHNYOKnFJ6fK8-20" target="PAqF7uCTHNYOKnFJ6fK8-3">
          <mxGeometry width="50" height="50" relative="1" as="geometry">
            <mxPoint x="400" y="380" as="sourcePoint" />
            <mxPoint x="450" y="330" as="targetPoint" />
          </mxGeometry>
        </mxCell>
        <mxCell id="PAqF7uCTHNYOKnFJ6fK8-22" value="" style="endArrow=none;html=1;rounded=0;exitX=0.5;exitY=1;exitDx=0;exitDy=0;entryX=0.5;entryY=0;entryDx=0;entryDy=0;" edge="1" parent="1" source="PAqF7uCTHNYOKnFJ6fK8-20" target="PAqF7uCTHNYOKnFJ6fK8-17">
          <mxGeometry width="50" height="50" relative="1" as="geometry">
            <mxPoint x="400" y="380" as="sourcePoint" />
            <mxPoint x="450" y="330" as="targetPoint" />
          </mxGeometry>
        </mxCell>
        <mxCell id="PAqF7uCTHNYOKnFJ6fK8-23" value="(1,1)" style="text;html=1;strokeColor=none;fillColor=none;align=center;verticalAlign=middle;whiteSpace=wrap;rounded=0;" vertex="1" parent="1">
          <mxGeometry x="325" y="350" width="60" height="30" as="geometry" />
        </mxCell>
        <mxCell id="PAqF7uCTHNYOKnFJ6fK8-24" value="(0,N)" style="text;html=1;strokeColor=none;fillColor=none;align=center;verticalAlign=middle;whiteSpace=wrap;rounded=0;" vertex="1" parent="1">
          <mxGeometry x="350" y="220" width="60" height="30" as="geometry" />
        </mxCell>
        <mxCell id="PAqF7uCTHNYOKnFJ6fK8-25" value="FAIRE_PARTIE" style="rhombus;whiteSpace=wrap;html=1;" vertex="1" parent="1">
          <mxGeometry x="410" y="410" width="80" height="80" as="geometry" />
        </mxCell>
        <mxCell id="PAqF7uCTHNYOKnFJ6fK8-26" value="" style="endArrow=none;html=1;rounded=0;entryX=0;entryY=0.5;entryDx=0;entryDy=0;" edge="1" parent="1" target="PAqF7uCTHNYOKnFJ6fK8-2">
          <mxGeometry width="50" height="50" relative="1" as="geometry">
            <mxPoint x="450" y="490" as="sourcePoint" />
            <mxPoint x="460" y="400" as="targetPoint" />
          </mxGeometry>
        </mxCell>
        <mxCell id="PAqF7uCTHNYOKnFJ6fK8-27" value="" style="endArrow=none;html=1;rounded=0;exitX=1;exitY=0;exitDx=0;exitDy=0;entryX=0;entryY=0.5;entryDx=0;entryDy=0;" edge="1" parent="1" source="PAqF7uCTHNYOKnFJ6fK8-17" target="PAqF7uCTHNYOKnFJ6fK8-25">
          <mxGeometry width="50" height="50" relative="1" as="geometry">
            <mxPoint x="410" y="450" as="sourcePoint" />
            <mxPoint x="460" y="400" as="targetPoint" />
          </mxGeometry>
        </mxCell>
        <mxCell id="PAqF7uCTHNYOKnFJ6fK8-28" value="COLIS" style="swimlane;whiteSpace=wrap;html=1;" vertex="1" parent="1">
          <mxGeometry x="276" y="760" width="130" height="160" as="geometry" />
        </mxCell>
        <mxCell id="PAqF7uCTHNYOKnFJ6fK8-29" value="&lt;div&gt;&lt;u&gt;#numero_colis&lt;/u&gt;&lt;/div&gt;&lt;div&gt;&lt;i&gt;indicateurRetraitcolis&lt;/i&gt;&lt;br&gt;&lt;/div&gt;" style="text;html=1;align=center;verticalAlign=middle;resizable=0;points=[];autosize=1;strokeColor=none;fillColor=none;" vertex="1" parent="PAqF7uCTHNYOKnFJ6fK8-28">
          <mxGeometry y="30" width="130" height="40" as="geometry" />
        </mxCell>
        <mxCell id="PAqF7uCTHNYOKnFJ6fK8-30" value="COMPOSER" style="rhombus;whiteSpace=wrap;html=1;" vertex="1" parent="1">
          <mxGeometry x="520" y="780" width="130" height="120" as="geometry" />
        </mxCell>
        <mxCell id="PAqF7uCTHNYOKnFJ6fK8-33" value="" style="endArrow=none;html=1;rounded=0;exitX=1;exitY=0.75;exitDx=0;exitDy=0;entryX=0;entryY=0.5;entryDx=0;entryDy=0;" edge="1" parent="1" source="PAqF7uCTHNYOKnFJ6fK8-28" target="PAqF7uCTHNYOKnFJ6fK8-30">
          <mxGeometry width="50" height="50" relative="1" as="geometry">
            <mxPoint x="410" y="540" as="sourcePoint" />
            <mxPoint x="460" y="490" as="targetPoint" />
          </mxGeometry>
        </mxCell>
        <mxCell id="PAqF7uCTHNYOKnFJ6fK8-34" value="" style="endArrow=none;html=1;rounded=0;exitX=0.5;exitY=1;exitDx=0;exitDy=0;entryX=1;entryY=0;entryDx=0;entryDy=0;" edge="1" parent="1" source="PAqF7uCTHNYOKnFJ6fK8-2" target="PAqF7uCTHNYOKnFJ6fK8-30">
          <mxGeometry width="50" height="50" relative="1" as="geometry">
            <mxPoint x="410" y="540" as="sourcePoint" />
            <mxPoint x="460" y="490" as="targetPoint" />
          </mxGeometry>
        </mxCell>
        <mxCell id="PAqF7uCTHNYOKnFJ6fK8-35" value="APPARTENIR" style="rhombus;whiteSpace=wrap;html=1;" vertex="1" parent="1">
          <mxGeometry x="270" y="630" width="80" height="80" as="geometry" />
        </mxCell>
        <mxCell id="PAqF7uCTHNYOKnFJ6fK8-36" value="" style="endArrow=none;html=1;rounded=0;exitX=0.5;exitY=1;exitDx=0;exitDy=0;entryX=0.5;entryY=0;entryDx=0;entryDy=0;" edge="1" parent="1" source="PAqF7uCTHNYOKnFJ6fK8-17" target="PAqF7uCTHNYOKnFJ6fK8-35">
          <mxGeometry width="50" height="50" relative="1" as="geometry">
            <mxPoint x="410" y="540" as="sourcePoint" />
            <mxPoint x="460" y="490" as="targetPoint" />
          </mxGeometry>
        </mxCell>
        <mxCell id="PAqF7uCTHNYOKnFJ6fK8-37" value="" style="endArrow=none;html=1;rounded=0;exitX=0.5;exitY=0;exitDx=0;exitDy=0;" edge="1" parent="1" source="PAqF7uCTHNYOKnFJ6fK8-28" target="PAqF7uCTHNYOKnFJ6fK8-35">
          <mxGeometry width="50" height="50" relative="1" as="geometry">
            <mxPoint x="410" y="540" as="sourcePoint" />
            <mxPoint x="460" y="490" as="targetPoint" />
          </mxGeometry>
        </mxCell>
        <mxCell id="PAqF7uCTHNYOKnFJ6fK8-38" value="(&#39;0,N)" style="text;html=1;strokeColor=none;fillColor=none;align=center;verticalAlign=middle;whiteSpace=wrap;rounded=0;" vertex="1" parent="1">
          <mxGeometry x="540" y="750" width="60" height="30" as="geometry" />
        </mxCell>
        <mxCell id="PAqF7uCTHNYOKnFJ6fK8-39" value="(1,N)" style="text;html=1;strokeColor=none;fillColor=none;align=center;verticalAlign=middle;whiteSpace=wrap;rounded=0;" vertex="1" parent="1">
          <mxGeometry x="406" y="850" width="60" height="30" as="geometry" />
        </mxCell>
        <mxCell id="PAqF7uCTHNYOKnFJ6fK8-40" value="(1,N)" style="text;html=1;strokeColor=none;fillColor=none;align=center;verticalAlign=middle;whiteSpace=wrap;rounded=0;" vertex="1" parent="1">
          <mxGeometry x="330" y="720" width="60" height="30" as="geometry" />
        </mxCell>
        <mxCell id="PAqF7uCTHNYOKnFJ6fK8-41" value="(0,N)" style="text;html=1;strokeColor=none;fillColor=none;align=center;verticalAlign=middle;whiteSpace=wrap;rounded=0;" vertex="1" parent="1">
          <mxGeometry x="321" y="600" width="60" height="30" as="geometry" />
        </mxCell>
        <mxCell id="PAqF7uCTHNYOKnFJ6fK8-42" value="&lt;div&gt;quantiteExpediee&lt;/div&gt;&lt;div&gt;quantiteAccepte&lt;br&gt;&lt;/div&gt;" style="text;html=1;strokeColor=none;fillColor=none;align=center;verticalAlign=middle;whiteSpace=wrap;rounded=0;" vertex="1" parent="1">
          <mxGeometry x="540" y="845" width="80" height="40" as="geometry" />
        </mxCell>
        <mxCell id="PAqF7uCTHNYOKnFJ6fK8-44" value="(0,N)" style="text;html=1;strokeColor=none;fillColor=none;align=center;verticalAlign=middle;whiteSpace=wrap;rounded=0;" vertex="1" parent="1">
          <mxGeometry x="440" y="490" width="60" height="30" as="geometry" />
        </mxCell>
        <mxCell id="PAqF7uCTHNYOKnFJ6fK8-45" value="(0,N)" style="text;html=1;strokeColor=none;fillColor=none;align=center;verticalAlign=middle;whiteSpace=wrap;rounded=0;" vertex="1" parent="1">
          <mxGeometry x="370" y="400" width="60" height="30" as="geometry" />
        </mxCell>
      </root>
    </mxGraphModel>
  </diagram>
</mxfile>
